<svg id="Capa_1" enable-background="new 0 0 512 512" height="512" viewBox="0 0 512 512" width="512" xmlns="http://www.w3.org/2000/svg" xmlns:xlink="http://www.w3.org/1999/xlink"><linearGradient id="SVGID_1_" gradientUnits="userSpaceOnUse" x1="256" x2="256" y1="512" y2="0"><stop offset="0" stop-color="#d6e8f7"/><stop offset="1" stop-color="#b1d3ef"/></linearGradient><linearGradient id="SVGID_2_" gradientUnits="userSpaceOnUse" x1="256" x2="256" y1="407" y2="105"><stop offset="0" stop-color="#0066b8"/><stop offset="1" stop-color="#b1d3ef"/></linearGradient><g><g></g><g><g><path d="m300.318 167.177c0-21.183-14.033-32.01-15.806-34.67-2.675-2.993-6.994-3.817-10.569-2.021l-9.08 4.554v-21.156c0-3.686-2.268-6.983-5.704-8.301-3.436-1.31-7.323-.364-9.764 2.377l-26.435 29.622c-7.271 8.145-11.279 18.658-11.279 29.596 0 24.487 19.883 44.412 44.318 44.412s44.319-19.925 44.319-44.413zm-70.857 231.912c.493 4.502 4.293 7.911 8.812 7.911h35.455c4.518 0 8.318-3.409 8.812-7.911l14.731-134.206h-82.541zm115.175-187.5c-2.668 0-84.258 0-88.636 0-.1 0-.174 0-.192 0-5.336 0-86.155 0-88.444 0-4.899 0-8.864 3.973-8.864 8.882 0 4.91 3.964 8.882 8.864 8.882h14.202l18.795 17.765h111.278l18.795-17.765h14.202c4.899 0 8.864-3.973 8.864-8.882s-3.964-8.882-8.864-8.882z" fill="url(#SVGID_2_)"/></g></g></g></svg>